<svg version="1.1" xmlns="http://www.w3.org/2000/svg" viewBox="0 0 333.9011102200184 208.43523897632912" width="333.9011102200184" height="208.43523897632912">
  <!-- svg-source:excalidraw -->
  
  <defs>
    <style class="style-fonts">
      @font-face {
        font-family: "Virgil";
        src: url("https://file%2B.vscode-resource.vscode-cdn.net/Users/master/.vscode/extensions/pomdtr.excalidraw-editor-3.7.4/public//dist/excalidraw-assets/Virgil.woff2");
      }
      @font-face {
        font-family: "Cascadia";
        src: url("https://file%2B.vscode-resource.vscode-cdn.net/Users/master/.vscode/extensions/pomdtr.excalidraw-editor-3.7.4/public//dist/excalidraw-assets/Cascadia.woff2");
      }
      @font-face {
        font-family: "Assistant";
        src: url("https://file%2B.vscode-resource.vscode-cdn.net/Users/master/.vscode/extensions/pomdtr.excalidraw-editor-3.7.4/public//dist/excalidraw-assets/Assistant-Regular.woff2");
      }
    </style>
    
  </defs>
  <rect x="0" y="0" width="333.9011102200184" height="208.43523897632912" fill="#ffffff"></rect><g stroke-linecap="round"><g transform="translate(10 19.44575115810693) rotate(0 3.424228960734979 32.182446925007866)"><path d="M0 0 C1.14 10.73, 5.71 53.64, 6.85 64.36 M0 0 C1.14 10.73, 5.71 53.64, 6.85 64.36" stroke="#1e1e1e" stroke-width="2" fill="none"></path></g></g><mask></mask><g stroke-linecap="round"><g transform="translate(11.275580070923866 23.95526117375988) rotate(0 15.574532800863892 -6.352527152485067)"><path d="M0 0 C5.19 -2.12, 25.96 -10.59, 31.15 -12.71 M0 0 C5.19 -2.12, 25.96 -10.59, 31.15 -12.71" stroke="#1e1e1e" stroke-width="2" fill="none"></path></g></g><mask></mask><g stroke-linecap="round"><g transform="translate(13.960526187660435 45.82696141336169) rotate(0 14.164013427681425 -4.062018996196883)"><path d="M0 0 C4.72 -1.35, 23.61 -6.77, 28.33 -8.12 M0 0 C4.72 -1.35, 23.61 -6.77, 28.33 -8.12" stroke="#1e1e1e" stroke-width="2" fill="none"></path></g></g><mask></mask><g stroke-linecap="round"><g transform="translate(63.90421460654454 40.48013572728314) rotate(0 -6.545132823230347 9.685643251011186)"><path d="M0 0 C-2.18 3.23, -10.91 16.14, -13.09 19.37 M0 0 C-2.18 3.23, -10.91 16.14, -13.09 19.37" stroke="#1e1e1e" stroke-width="2" fill="none"></path></g></g><mask></mask><g stroke-linecap="round"><g transform="translate(53.09523049741415 58.25521714959615) rotate(0 9.030553305003309 12.670454483878189)"><path d="M0 0 C3.01 4.22, 15.05 21.12, 18.06 25.34 M0 0 C3.01 4.22, 15.05 21.12, 18.06 25.34" stroke="#1e1e1e" stroke-width="2" fill="none"></path></g></g><mask></mask><g stroke-linecap="round"><g transform="translate(70.14602233153528 81.37251094850876) rotate(0 5.97654242995236 -9.44113784862796)"><path d="M0 0 C1.99 -3.15, 9.96 -15.74, 11.95 -18.88 M0 0 C1.99 -3.15, 9.96 -15.74, 11.95 -18.88" stroke="#1e1e1e" stroke-width="2" fill="none"></path></g></g><mask></mask><g stroke-linecap="round"><g transform="translate(64.97911571513498 45.82696141336169) rotate(0 8.15633115874624 8.956740353340422)"><path d="M0 0 C2.72 2.99, 13.59 14.93, 16.31 17.91 M0 0 C2.72 2.99, 13.59 14.93, 16.31 17.91" stroke="#1e1e1e" stroke-width="2" fill="none"></path></g></g><mask></mask><g stroke-linecap="round"><g transform="translate(95.92519569978992 13.469208728154456) rotate(0 -5.43678522091767 35.30681076961247)"><path d="M0 0 C-1.81 11.77, -9.06 58.84, -10.87 70.61 M0 0 C-1.81 11.77, -9.06 58.84, -10.87 70.61" stroke="#1e1e1e" stroke-width="2" fill="none"></path></g></g><mask></mask><g stroke-linecap="round"><g transform="translate(98.20878389185964 14.719415596944202) rotate(0 8.291270461004956 8.783741247880585)"><path d="M0 0 C2.76 2.93, 13.82 14.64, 16.58 17.57 M0 0 C2.76 2.93, 13.82 14.64, 16.58 17.57" stroke="#1e1e1e" stroke-width="2" fill="none"></path></g></g><mask></mask><g stroke-linecap="round"><g transform="translate(117.00340670901608 33.537104961495174) rotate(0 -13.224051621349645 9.234692249445885)"><path d="M0 0 C-4.41 3.08, -22.04 15.39, -26.45 18.47 M0 0 C-4.41 3.08, -22.04 15.39, -26.45 18.47" stroke="#1e1e1e" stroke-width="2" fill="none"></path></g></g><mask></mask><g stroke-linecap="round"><g transform="translate(93.6416075077201 51.934983163463585) rotate(0 13.695762515570095 16.595227523076915)"><path d="M0 0 C4.57 5.53, 22.83 27.66, 27.39 33.19 M0 0 C4.57 5.53, 22.83 27.66, 27.39 33.19" stroke="#1e1e1e" stroke-width="2" fill="none"></path></g></g><mask></mask><g stroke-linecap="round"><g transform="translate(146.79145382770866 15.03302845476037) rotate(0 -1.1071942749429127 34.85585976804717)"><path d="M0 0 C-0.37 11.62, -1.85 58.09, -2.21 69.71 M0 0 C-0.37 11.62, -1.85 58.09, -2.21 69.71" stroke="#1e1e1e" stroke-width="2" fill="none"></path></g></g><mask></mask><g stroke-linecap="round"><g transform="translate(123.44820005107965 20.066241283022862) rotate(0 21.416135928557594 -3.6791143094457937)"><path d="M0 0 C7.14 -1.23, 35.69 -6.13, 42.83 -7.36 M0 0 C7.14 -1.23, 35.69 -6.13, 42.83 -7.36" stroke="#1e1e1e" stroke-width="2" fill="none"></path></g></g><mask></mask><g stroke-linecap="round"><g transform="translate(181.3821404874684 13.538408370338459) rotate(0 7.050290211173092 11.492907239381566)"><path d="M0 0 C2.35 3.83, 11.75 19.15, 14.1 22.99 M0 0 C2.35 3.83, 11.75 19.15, 14.1 22.99" stroke="#1e1e1e" stroke-width="2" fill="none"></path></g></g><mask></mask><g stroke-linecap="round"><g transform="translate(213.00176365604705 10) rotate(0 -18.326371905044994 37.25016738761124)"><path d="M0 0 C-6.11 12.42, -30.54 62.08, -36.65 74.5 M0 0 C-6.11 12.42, -30.54 62.08, -36.65 74.5" stroke="#1e1e1e" stroke-width="2" fill="none"></path></g></g><mask></mask><g stroke-linecap="round"><g transform="translate(243.47728607385125 17.012230407971913) rotate(0 -12.65200124596248 17.357576914469917)"><path d="M0 0 C-4.22 5.79, -21.09 28.93, -25.3 34.72 M0 0 C-4.22 5.79, -21.09 28.93, -25.3 34.72" stroke="#1e1e1e" stroke-width="2" fill="none"></path></g></g><mask></mask><g stroke-linecap="round"><g transform="translate(219.84791492277748 56.65901206988673) rotate(0 4.599469550492074 17.877727558219135)"><path d="M0 0 C1.53 5.96, 7.67 29.8, 9.2 35.76 M0 0 C1.53 5.96, 7.67 29.8, 9.2 35.76" stroke="#1e1e1e" stroke-width="2" fill="none"></path></g></g><mask></mask><g stroke-linecap="round"><g transform="translate(245.22573036636527 64.2248396153301) rotate(0 -0.604343541739695 9.721396399472894)"><path d="M0 0 C-0.2 3.24, -1.01 16.2, -1.21 19.44 M0 0 C-0.2 3.24, -1.01 16.2, -1.21 19.44" stroke="#1e1e1e" stroke-width="2" fill="none"></path></g></g><mask></mask><g stroke-linecap="round"><g transform="translate(260.93404914211817 61.86282516211844) rotate(0 -4.463376920863709 4.61792278840781)"><path d="M0 0 C-1.49 1.54, -7.44 7.7, -8.93 9.24 M0 0 C-1.49 1.54, -7.44 7.7, -8.93 9.24" stroke="#1e1e1e" stroke-width="2" fill="none"></path></g></g><mask></mask><g stroke-linecap="round"><g transform="translate(254.35546982516564 71.3062696654859) rotate(0 5.035427296250873 5.068873789973111)"><path d="M0 0 C1.68 1.69, 8.39 8.45, 10.07 10.14 M0 0 C1.68 1.69, 8.39 8.45, 10.07 10.14" stroke="#1e1e1e" stroke-width="2" fill="none"></path></g></g><mask></mask><g stroke-linecap="round"><g transform="translate(265.1644539342959 81.44171059069265) rotate(0 -7.082583377525566 5.451778476724201)"><path d="M0 0 C-2.36 1.82, -11.8 9.09, -14.17 10.9 M0 0 C-2.36 1.82, -11.8 9.09, -14.17 10.9" stroke="#1e1e1e" stroke-width="2" fill="none"></path></g></g><mask></mask><g stroke-linecap="round"><g transform="translate(279.6640856265693 23.747662247208098) rotate(0 -4.665209210566843 34.26420282737453)"><path d="M0 0 C-1.56 11.42, -7.78 57.11, -9.33 68.53 M0 0 C-1.56 11.42, -7.78 57.11, -9.33 68.53" stroke="#1e1e1e" stroke-width="2" fill="none"></path></g></g><mask></mask><g stroke-linecap="round"><g transform="translate(296.9178630777635 12.292814811027654) rotate(0 13.190605127627464 26.591115836546066)"><path d="M0 0 C4.4 8.86, 21.98 44.32, 26.38 53.18 M0 0 C4.4 8.86, 21.98 44.32, 26.38 53.18" stroke="#1e1e1e" stroke-width="2" fill="none"></path></g></g><mask></mask><g stroke-linecap="round"><g transform="translate(323.9011102200184 64.15563997314615) rotate(0 -8.490796095968562 18.260632244970253)"><path d="M0 0 C-2.83 6.09, -14.15 30.43, -16.98 36.52 M0 0 C-2.83 6.09, -14.15 30.43, -16.98 36.52" stroke="#1e1e1e" stroke-width="2" fill="none"></path></g></g><mask></mask><g stroke-linecap="round"><g transform="translate(48.306615258286 111.64504774924) rotate(0 -2.5822999808304417 33.22390153987607)"><path d="M0 0 C-0.86 11.07, -4.3 55.37, -5.16 66.45 M0 0 C-0.86 11.07, -4.3 55.37, -5.16 66.45" stroke="#1e1e1e" stroke-width="2" fill="none"></path></g></g><mask></mask><g stroke-linecap="round"><g transform="translate(44.27919608318109 174.2015242835157) rotate(0 21.651414711982966 -0.9711016453145191)"><path d="M0 0 C7.22 -0.32, 36.09 -1.62, 43.3 -1.94 M0 0 C7.22 -0.32, 36.09 -1.62, 43.3 -1.94" stroke="#1e1e1e" stroke-width="2" fill="none"></path></g></g><mask></mask><g stroke-linecap="round"><g transform="translate(94.29208414424909 119.14628896197843) rotate(0 14.266659563587552 -1.6319582281711007)"><path d="M0 0 C4.76 -0.54, 23.78 -2.72, 28.53 -3.26 M0 0 C4.76 -0.54, 23.78 -2.72, 28.53 -3.26" stroke="#1e1e1e" stroke-width="2" fill="none"></path></g></g><mask></mask><g stroke-linecap="round"><g transform="translate(107.58764206252215 119.00788967761054) rotate(0 1.5431520207017115 22.356097734889374)"><path d="M0 0 C0.51 7.45, 2.57 37.26, 3.09 44.71 M0 0 C0.51 7.45, 2.57 37.26, 3.09 44.71" stroke="#1e1e1e" stroke-width="2" fill="none"></path></g></g><mask></mask><g stroke-linecap="round"><g transform="translate(95.03021366087773 164.7626930896272) rotate(0 16.951605680324178 2.4300607680257826)"><path d="M0 0 C5.65 0.81, 28.25 4.05, 33.9 4.86 M0 0 C5.65 0.81, 28.25 4.05, 33.9 4.86" stroke="#1e1e1e" stroke-width="2" fill="none"></path></g></g><mask></mask><g stroke-linecap="round"><g transform="translate(151.4878950640093 112.13405855400657) rotate(0 -4.899334666622451 29.611680217874778)"><path d="M0 0 C-1.63 9.87, -8.17 49.35, -9.8 59.22 M0 0 C-1.63 9.87, -8.17 49.35, -9.8 59.22" stroke="#1e1e1e" stroke-width="2" fill="none"></path></g></g><mask></mask><g stroke-linecap="round"><g transform="translate(152.89956776456165 115.3264687134253) rotate(0 6.578579316952585 27.251972419402648)"><path d="M0 0 C2.19 9.08, 10.96 45.42, 13.16 54.5 M0 0 C2.19 9.08, 10.96 45.42, 13.16 54.5" stroke="#1e1e1e" stroke-width="2" fill="none"></path></g></g><mask></mask><g stroke-linecap="round"><g transform="translate(166.05672639846682 169.34370940220356) rotate(0 5.840449800323938 -30.271383473361595)"><path d="M0 0 C1.95 -10.09, 9.73 -50.45, 11.68 -60.54 M0 0 C1.95 -10.09, 9.73 -50.45, 11.68 -60.54" stroke="#1e1e1e" stroke-width="2" fill="none"></path></g></g><mask></mask><g stroke-linecap="round"><g transform="translate(192.63861561605495 114.35306041337134) rotate(0 -2.112895741349405 24.89226462093052)"><path d="M0 0 C-0.7 8.3, -3.52 41.49, -4.23 49.78 M0 0 C-0.7 8.3, -3.52 41.49, -4.23 49.78" stroke="#1e1e1e" stroke-width="2" fill="none"></path></g></g><mask></mask><g stroke-linecap="round"><g transform="translate(192.504829641166 114.98047050250563) rotate(0 14.769510296790827 -4.305371071210374)"><path d="M0 0 C4.92 -1.44, 24.62 -7.18, 29.54 -8.61 M0 0 C4.92 -1.44, 24.62 -7.18, 29.54 -8.61" stroke="#1e1e1e" stroke-width="2" fill="none"></path></g></g><mask></mask><g stroke-linecap="round"><g transform="translate(193.17837282508958 137.82096573268257) rotate(0 10.0016549503178 -3.889019890737046)"><path d="M0 0 C3.33 -1.3, 16.67 -6.48, 20 -7.78 M0 0 C3.33 -1.3, 16.67 -6.48, 20 -7.78" stroke="#1e1e1e" stroke-width="2" fill="none"></path></g></g><mask></mask><g stroke-linecap="round"><g transform="translate(186.9319517906199 168.09350253341387) rotate(0 15.10628188875262 -3.6099146672618474)"><path d="M0 0 C5.04 -1.2, 25.18 -6.02, 30.21 -7.22 M0 0 C5.04 -1.2, 25.18 -6.02, 30.21 -7.22" stroke="#1e1e1e" stroke-width="2" fill="none"></path></g></g><mask></mask><g stroke-linecap="round"><g transform="translate(271.71996670385386 111.92184631797579) rotate(0 -15.406147004882996 10.381099654959712)"><path d="M0 0 C-5.14 3.46, -25.68 17.3, -30.81 20.76 M0 0 C-5.14 3.46, -25.68 17.3, -30.81 20.76" stroke="#1e1e1e" stroke-width="2" fill="none"></path></g></g><mask></mask><g stroke-linecap="round"><g transform="translate(242.785289652012 130.3243378294231) rotate(0 11.514820459406508 8.817187741602822)"><path d="M0 0 C3.84 2.94, 19.19 14.7, 23.03 17.63 M0 0 C3.84 2.94, 19.19 14.7, 23.03 17.63" stroke="#1e1e1e" stroke-width="2" fill="none"></path></g></g><mask></mask><g stroke-linecap="round"><g transform="translate(269.0350205871173 145.66820515634055) rotate(0 -25.576187751181692 26.383516909994285)"><path d="M0 0 C-8.53 8.79, -42.63 43.97, -51.15 52.77 M0 0 C-8.53 8.79, -42.63 43.97, -51.15 52.77" stroke="#1e1e1e" stroke-width="2" fill="none"></path></g></g><mask></mask><g stroke-linecap="round"><g transform="translate(277.85105500135023 62.905433104356405) rotate(0 7.922205702690633 17.28837727228597)"><path d="M0 0 C2.64 5.76, 13.2 28.81, 15.84 34.58 M0 0 C2.64 5.76, 13.2 28.81, 15.84 34.58" stroke="#1e1e1e" stroke-width="2" fill="none"></path></g></g><mask></mask></svg>