<svg version="1.1" xmlns="http://www.w3.org/2000/svg" viewBox="0 0 262.6719665527344 388.83629608154297" width="262.6719665527344" height="388.83629608154297">
  <!-- svg-source:excalidraw -->
  
  <defs>
    <style class="style-fonts">
      @font-face {
        font-family: "Virgil";
        src: url("https://file%2B.vscode-resource.vscode-cdn.net/Users/master/.vscode/extensions/pomdtr.excalidraw-editor-3.7.4/public//dist/excalidraw-assets/Virgil.woff2");
      }
      @font-face {
        font-family: "Cascadia";
        src: url("https://file%2B.vscode-resource.vscode-cdn.net/Users/master/.vscode/extensions/pomdtr.excalidraw-editor-3.7.4/public//dist/excalidraw-assets/Cascadia.woff2");
      }
      @font-face {
        font-family: "Assistant";
        src: url("https://file%2B.vscode-resource.vscode-cdn.net/Users/master/.vscode/extensions/pomdtr.excalidraw-editor-3.7.4/public//dist/excalidraw-assets/Assistant-Regular.woff2");
      }
    </style>
    
  </defs>
  <rect x="0" y="0" width="262.6719665527344" height="388.83629608154297" fill="#ffffff"></rect><g stroke-linecap="round"><g transform="translate(33.32463073730469 10.899993896484375) rotate(0 1.7048187255859375 30.29401397705078)"><path d="M0 0 C0.57 10.1, 2.84 50.49, 3.41 60.59 M0 0 C0.57 10.1, 2.84 50.49, 3.41 60.59" stroke="#1e1e1e" stroke-width="2" fill="none"></path></g></g><mask></mask><g stroke-linecap="round"><g transform="translate(59.33088684082031 13.543746948242188) rotate(0 -0.10174560546875 28.467620849609375)"><path d="M0 0 C-0.03 9.49, -0.17 47.45, -0.2 56.94 M0 0 C-0.03 9.49, -0.17 47.45, -0.2 56.94" stroke="#1e1e1e" stroke-width="2" fill="none"></path></g></g><mask></mask><g stroke-linecap="round"><g transform="translate(82.87150573730469 10) rotate(0 0.636444091796875 32.755149841308594)"><path d="M0 0 C0.21 10.92, 1.06 54.59, 1.27 65.51 M0 0 C0.21 10.92, 1.06 54.59, 1.27 65.51" stroke="#1e1e1e" stroke-width="2" fill="none"></path></g></g><mask></mask><g stroke-linecap="round"><g transform="translate(106.89964294433594 15.615615844726562) rotate(0 -0.1016693115234375 25.558853149414062)"><path d="M0 0 C-0.03 8.52, -0.17 42.6, -0.2 51.12 M0 0 C-0.03 8.52, -0.17 42.6, -0.2 51.12" stroke="#1e1e1e" stroke-width="2" fill="none"></path></g></g><mask></mask><g stroke-linecap="round"><g transform="translate(23.780868530273438 18.87811279296875) rotate(0 49.86468505859375 22.651832580566406)"><path d="M0 0 C16.62 7.55, 83.11 37.75, 99.73 45.3 M0 0 C16.62 7.55, 83.11 37.75, 99.73 45.3" stroke="#1e1e1e" stroke-width="2" fill="none"></path></g></g><mask></mask><g stroke-linecap="round"><g transform="translate(163.8826446533203 14.371307373046875) rotate(0 -0.6356048583984375 26.701988220214844)"><path d="M0 0 C-0.21 8.9, -1.06 44.5, -1.27 53.4 M0 0 C-0.21 8.9, -1.06 44.5, -1.27 53.4" stroke="#1e1e1e" stroke-width="2" fill="none"></path></g></g><mask></mask><g stroke-linecap="round"><g transform="translate(185.88401794433594 11.303115844726562) rotate(0 -0.2322540283203125 30.240554809570312)"><path d="M0 0 C-0.08 10.08, -0.39 50.4, -0.46 60.48 M0 0 C-0.08 10.08, -0.39 50.4, -0.46 60.48" stroke="#1e1e1e" stroke-width="2" fill="none"></path></g></g><mask></mask><g stroke-linecap="round"><g transform="translate(207.8683624267578 12.024993896484375) rotate(0 -0.09881591796875 29.23578643798828)"><path d="M0 0 C-0.03 9.75, -0.16 48.73, -0.2 58.47 M0 0 C-0.03 9.75, -0.16 48.73, -0.2 58.47" stroke="#1e1e1e" stroke-width="2" fill="none"></path></g></g><mask></mask><g stroke-linecap="round"><g transform="translate(227.9965362548828 14.56561279296875) rotate(0 -0.098876953125 27.53032684326172)"><path d="M0 0 C-0.03 9.18, -0.16 45.88, -0.2 55.06 M0 0 C-0.03 9.18, -0.16 45.88, -0.2 55.06" stroke="#1e1e1e" stroke-width="2" fill="none"></path></g></g><mask></mask><g stroke-linecap="round"><g transform="translate(151.85276794433594 17.828125) rotate(0 42.80192565917969 25.593711853027344)"><path d="M0 0 C14.27 8.53, 71.34 42.66, 85.6 51.19 M0 0 C14.27 8.53, 71.34 42.66, 85.6 51.19" stroke="#1e1e1e" stroke-width="2" fill="none"></path></g></g><mask></mask><g stroke-linecap="round"><g transform="translate(37.440643310546875 105.97078704833984) rotate(0 0.3013458251953125 34.79801940917969)"><path d="M0 0 C0.1 11.6, 0.5 58, 0.6 69.6 M0 0 C0.1 11.6, 0.5 58, 0.6 69.6" stroke="#1e1e1e" stroke-width="2" fill="none"></path></g></g><mask></mask><g stroke-linecap="round"><g transform="translate(61.562530517578125 115.5614242553711) rotate(0 -0.600311279296875 31.820449829101562)"><path d="M0 0 C-0.2 10.61, -1 53.03, -1.2 63.64 M0 0 C-0.2 10.61, -1 53.03, -1.2 63.64" stroke="#1e1e1e" stroke-width="2" fill="none"></path></g></g><mask></mask><g stroke-linecap="round"><g transform="translate(78.15628051757812 108.63329315185547) rotate(0 2.911895751953125 35.52813720703125)"><path d="M0 0 C0.97 11.84, 4.85 59.21, 5.82 71.06 M0 0 C0.97 11.84, 4.85 59.21, 5.82 71.06" stroke="#1e1e1e" stroke-width="2" fill="none"></path></g></g><mask></mask><g stroke-linecap="round"><g transform="translate(105.42813110351562 111.86766815185547) rotate(0 1.2060546875 31.65142822265625)"><path d="M0 0 C0.4 10.55, 2.01 52.75, 2.41 63.3 M0 0 C0.4 10.55, 2.01 52.75, 2.41 63.3" stroke="#1e1e1e" stroke-width="2" fill="none"></path></g></g><mask></mask><g stroke-linecap="round"><g transform="translate(10 116.99578094482422) rotate(0 58.00462341308594 29.479904174804688)"><path d="M0 0 C19.33 9.83, 96.67 49.13, 116.01 58.96 M0 0 C19.33 9.83, 96.67 49.13, 116.01 58.96" stroke="#1e1e1e" stroke-width="2" fill="none"></path></g></g><mask></mask><g stroke-linecap="round"><g transform="translate(157.25003051757812 116.70201873779297) rotate(0 0.004608154296875 32.2523193359375)"><path d="M0 0 C0 10.75, 0.01 53.75, 0.01 64.5 M0 0 C0 10.75, 0.01 53.75, 0.01 64.5" stroke="#1e1e1e" stroke-width="2" fill="none"></path></g></g><mask></mask><g stroke-linecap="round"><g transform="translate(183.52816772460938 110.87078094482422) rotate(0 0.002593994140625 29.909103393554688)"><path d="M0 0 C0 9.97, 0 49.85, 0.01 59.82 M0 0 C0 9.97, 0 49.85, 0.01 59.82" stroke="#1e1e1e" stroke-width="2" fill="none"></path></g></g><mask></mask><g stroke-linecap="round"><g transform="translate(208.85000610351562 116.37389373779297) rotate(0 -1.506317138671875 28.804733276367188)"><path d="M0 0 C-0.5 9.6, -2.51 48.01, -3.01 57.61 M0 0 C-0.5 9.6, -2.51 48.01, -3.01 57.61" stroke="#1e1e1e" stroke-width="2" fill="none"></path></g></g><mask></mask><g stroke-linecap="round"><g transform="translate(228.81875610351562 124.2863998413086) rotate(0 1.8094482421875 25.726181030273438)"><path d="M0 0 C0.6 8.58, 3.02 42.88, 3.62 51.45 M0 0 C0.6 8.58, 3.02 42.88, 3.62 51.45" stroke="#1e1e1e" stroke-width="2" fill="none"></path></g></g><mask></mask><g stroke-linecap="round"><g transform="translate(151.23129272460938 124.8957748413086) rotate(0 48.716522216796875 15.793197631835938)"><path d="M0 0 C16.24 5.26, 81.19 26.32, 97.43 31.59 M0 0 C16.24 5.26, 81.19 26.32, 97.43 31.59" stroke="#1e1e1e" stroke-width="2" fill="none"></path></g></g><mask></mask><g stroke-linecap="round"><g transform="translate(40.0718994140625 217.2489242553711) rotate(0 0.6060333251953125 28.677108764648438)"><path d="M0 0 C0.2 9.56, 1.01 47.8, 1.21 57.35 M0 0 C0.2 9.56, 1.01 47.8, 1.21 57.35" stroke="#1e1e1e" stroke-width="2" fill="none"></path></g></g><mask></mask><g stroke-linecap="round"><g transform="translate(56.196868896484375 214.25829315185547) rotate(0 0.004302978515625 34.06120300292969)"><path d="M0 0 C0 11.35, 0.01 56.77, 0.01 68.12 M0 0 C0 11.35, 0.01 56.77, 0.01 68.12" stroke="#1e1e1e" stroke-width="2" fill="none"></path></g></g><mask></mask><g stroke-linecap="round"><g transform="translate(80.71249389648438 210.80828094482422) rotate(0 0.002349853515625 31.44781494140625)"><path d="M0 0 C0 10.48, 0 52.41, 0 62.9 M0 0 C0 10.48, 0 52.41, 0 62.9" stroke="#1e1e1e" stroke-width="2" fill="none"></path></g></g><mask></mask><g stroke-linecap="round"><g transform="translate(103.95315551757812 223.0520248413086) rotate(0 -0.667236328125 27.732269287109375)"><path d="M0 0 C-0.22 9.24, -1.11 46.22, -1.33 55.46 M0 0 C-0.22 9.24, -1.11 46.22, -1.33 55.46" stroke="#1e1e1e" stroke-width="2" fill="none"></path></g></g><mask></mask><g stroke-linecap="round"><g transform="translate(33.71563720703125 228.09578704833984) rotate(0 40.90614318847656 22.253082275390625)"><path d="M0 0 C13.64 7.42, 68.18 37.09, 81.81 44.51 M0 0 C13.64 7.42, 68.18 37.09, 81.81 44.51" stroke="#1e1e1e" stroke-width="2" fill="none"></path></g></g><mask></mask><g stroke-linecap="round"><g transform="translate(162.75314331054688 214.22078704833984) rotate(0 0.0028076171875 40.2149658203125)"><path d="M0 0 C0 13.4, 0 67.02, 0.01 80.43 M0 0 C0 13.4, 0 67.02, 0.01 80.43" stroke="#1e1e1e" stroke-width="2" fill="none"></path></g></g><mask></mask><g stroke-linecap="round"><g transform="translate(181.80313110351562 222.05828094482422) rotate(0 0.001373291015625 26.358810424804688)"><path d="M0 0 C0 8.79, 0 43.93, 0 52.72 M0 0 C0 8.79, 0 43.93, 0 52.72" stroke="#1e1e1e" stroke-width="2" fill="none"></path></g></g><mask></mask><g stroke-linecap="round"><g transform="translate(199.55001831054688 214.83016204833984) rotate(0 2.34326171875 37.248046875)"><path d="M0 0 C0.78 12.42, 3.91 62.08, 4.69 74.5 M0 0 C0.78 12.42, 3.91 62.08, 4.69 74.5" stroke="#1e1e1e" stroke-width="2" fill="none"></path></g></g><mask></mask><g stroke-linecap="round"><g transform="translate(231.75314331054688 207.61141204833984) rotate(0 -1.603668212890625 41.62107849121094)"><path d="M0 0 C-0.53 13.87, -2.67 69.37, -3.21 83.24 M0 0 C-0.53 13.87, -2.67 69.37, -3.21 83.24" stroke="#1e1e1e" stroke-width="2" fill="none"></path></g></g><mask></mask><g stroke-linecap="round"><g transform="translate(151.41879272460938 224.8801498413086) rotate(0 46.280670166015625 21.808853149414062)"><path d="M0 0 C15.43 7.27, 77.13 36.35, 92.56 43.62 M0 0 C15.43 7.27, 77.13 36.35, 92.56 43.62" stroke="#1e1e1e" stroke-width="2" fill="none"></path></g></g><mask></mask><g stroke-linecap="round"><g transform="translate(41.515625 313.6989059448242) rotate(0 -0.233642578125 27.9708251953125)"><path d="M0 0 C-0.08 9.32, -0.39 46.62, -0.47 55.94 M0 0 C-0.08 9.32, -0.39 46.62, -0.47 55.94" stroke="#1e1e1e" stroke-width="2" fill="none"></path></g></g><mask></mask><g stroke-linecap="round"><g transform="translate(64.16561889648438 313.4645309448242) rotate(0 -0.299835205078125 26.36053466796875)"><path d="M0 0 C-0.1 8.79, -0.5 43.93, -0.6 52.72 M0 0 C-0.1 8.79, -0.5 43.93, -0.6 52.72" stroke="#1e1e1e" stroke-width="2" fill="none"></path></g></g><mask></mask><g stroke-linecap="round"><g transform="translate(87.42501831054688 315.0114059448242) rotate(0 -0.73358154296875 30.6102294921875)"><path d="M0 0 C-0.24 10.2, -1.22 51.02, -1.47 61.22 M0 0 C-0.24 10.2, -1.22 51.02, -1.47 61.22" stroke="#1e1e1e" stroke-width="2" fill="none"></path></g></g><mask></mask><g stroke-linecap="round"><g transform="translate(106.85000610351562 318.5926742553711) rotate(0 1.240142822265625 27.264144897460938)"><path d="M0 0 C0.41 9.09, 2.07 45.44, 2.48 54.53 M0 0 C0.41 9.09, 2.07 45.44, 2.48 54.53" stroke="#1e1e1e" stroke-width="2" fill="none"></path></g></g><mask></mask><g stroke-linecap="round"><g transform="translate(29.628143310546875 330.28331756591797) rotate(0 52.8323974609375 18.5946044921875)"><path d="M0 0 C17.61 6.2, 88.05 30.99, 105.66 37.19 M0 0 C17.61 6.2, 88.05 30.99, 105.66 37.19" stroke="#1e1e1e" stroke-width="2" fill="none"></path></g></g><mask></mask><g stroke-linecap="round"><g transform="translate(171.88436889648438 322.96141815185547) rotate(0 -1.20367431640625 27.93743896484375)"><path d="M0 0 C-0.4 9.31, -2.01 46.56, -2.41 55.87 M0 0 C-0.4 9.31, -2.01 46.56, -2.41 55.87" stroke="#1e1e1e" stroke-width="2" fill="none"></path></g></g><mask></mask><g stroke-linecap="round"><g transform="translate(190.79379272460938 318.5457992553711) rotate(0 -0.8009033203125 28.639297485351562)"><path d="M0 0 C-0.27 9.55, -1.33 47.73, -1.6 57.28 M0 0 C-0.27 9.55, -1.33 47.73, -1.6 57.28" stroke="#1e1e1e" stroke-width="2" fill="none"></path></g></g><mask></mask><g stroke-linecap="round"><g transform="translate(212.49404907226562 319.45470428466797) rotate(0 -1.803955078125 26.899322509765625)"><path d="M0 0 C-0.6 8.97, -3.01 44.83, -3.61 53.8 M0 0 C-0.6 8.97, -3.01 44.83, -3.61 53.8" stroke="#1e1e1e" stroke-width="2" fill="none"></path></g></g><mask></mask><g stroke-linecap="round"><g transform="translate(232.35433959960938 320.62047576904297) rotate(0 -0.903656005859375 26.5631103515625)"><path d="M0 0 C-0.3 8.85, -1.51 44.27, -1.81 53.13 M0 0 C-0.3 8.85, -1.51 44.27, -1.81 53.13" stroke="#1e1e1e" stroke-width="2" fill="none"></path></g></g><mask></mask><g stroke-linecap="round"><g transform="translate(160.93441772460938 330.13329315185547) rotate(0 45.8687744140625 23.1292724609375)"><path d="M0 0 C15.29 7.71, 76.45 38.55, 91.74 46.26 M0 0 C15.29 7.71, 76.45 38.55, 91.74 46.26" stroke="#1e1e1e" stroke-width="2" fill="none"></path></g></g><mask></mask></svg>