<svg version="1.1" xmlns="http://www.w3.org/2000/svg" viewBox="0 0 441.52900941276755 196.10457597921913" width="441.52900941276755" height="196.10457597921913">

  <g stroke-linecap="round"><g transform="translate(10.656546065975022 11.486217809673747) rotate(0 16.438690274758244 58.179363808203476)"><path d="M0.53 0.56 C5.97 19.66, 28.38 96.27, 33.53 115.36 M-0.66 -0.2 C4.66 18.98, 27.41 97.19, 33.16 116.55" stroke="#000000" stroke-width="2" fill="none"></path></g></g><mask></mask><g stroke-linecap="round"><g transform="translate(10.379202315975022 11.810436559673747) rotate(0 36.7806644759886 29.274744563000297)"><path d="M1.09 -0.66 C12.87 8.94, 59.48 48.01, 71.15 58.14 M0.21 1.61 C12.3 11.29, 61.14 49.75, 73.35 59.21" stroke="#000000" stroke-width="2" fill="none"></path></g></g><mask></mask><g stroke-linecap="round"><g transform="translate(81.86357731597502 72.32996780967375) rotate(0 -18.978171310918356 27.392749347910296)"><path d="M-0.97 -0.89 C-7.6 8.5, -32.53 46.26, -38.68 55.68 M0.72 1.26 C-5.64 10.39, -29.93 45.36, -36.51 54.12" stroke="#000000" stroke-width="2" fill="none"></path></g></g><mask></mask><g stroke-linecap="round"><g transform="translate(84.05425561848517 76.73719049825343) rotate(3.216551686154933 108.19182195402686 -3.6682866801005503)"><path d="M-1.03 1.08 C25.72 -0.63, 123.12 -11.64, 159.52 -11.15 C195.93 -10.66, 208.11 1.41, 217.41 4.01 M0.64 0.59 C27.29 -1.35, 122.37 -13.54, 158.47 -12.74 C194.58 -11.93, 207.82 2.94, 217.26 5.44" stroke="#000000" stroke-width="2" fill="none"></path></g></g><mask></mask><g stroke-linecap="round"><g transform="translate(256.52055973785 64.9131569933545) rotate(0 86.63026879901912 33.13913099625509)"><path d="M-0.19 1.02 C11.49 -7.64, 48.41 -64.51, 69.02 -50.92 C89.64 -37.34, 105.86 53.97, 123.51 82.53 C141.16 111.09, 166.2 113.99, 174.92 120.44 M-1.75 0.52 C9.96 -8.02, 47.41 -66.27, 68.69 -52.94 C89.96 -39.6, 108.2 51.51, 125.92 80.53 C143.64 109.56, 166.89 114.33, 175.01 121.19" stroke="#000000" stroke-width="2" fill="none"></path></g></g><mask></mask><g stroke-linecap="round"><g transform="translate(117.01982731597502 72.97840530967375) rotate(0 -7.71098057888446 16.763810569839563)"><path d="M1.16 0.21 C-1.57 5.75, -13.73 28.8, -16.59 34.26 M0.32 -0.73 C-2.03 4.98, -11.49 26.71, -14.36 32.48" stroke="#000000" stroke-width="2" fill="none"></path></g></g><mask></mask><g stroke-linecap="round"><g transform="translate(139.58232731597502 72.57606155967375) rotate(0 -6.0660643808730015 11.924239629674702)"><path d="M-0.92 0.67 C-3.09 4.41, -10.16 18.89, -11.82 22.69 M0.79 -0.03 C-1.66 3.84, -10.9 19.73, -12.93 23.88" stroke="#000000" stroke-width="2" fill="none"></path></g></g><mask></mask><g stroke-linecap="round"><g transform="translate(170.57842106597502 69.41981155967375) rotate(0 -3.9839906366355535 9.316420518951475)"><path d="M-0.29 -0.67 C-1.65 2.17, -7.46 14.5, -9.09 17.7 M1.75 1.59 C0.37 4.59, -7.58 16.79, -9.72 19.31" stroke="#000000" stroke-width="2" fill="none"></path></g></g><mask></mask>
  </svg>
