<svg version="1.1" xmlns="http://www.w3.org/2000/svg" viewBox="0 0 441.52900941276755 196.10457597921913" width="441.52900941276755" height="196.10457597921913">
  <!-- svg-source:excalidraw -->
  
  <defs>
    <style class="style-fonts">
      @font-face {
        font-family: "Virgil";
        src: url("https://file%2B.vscode-resource.vscode-cdn.net/Users/master/.vscode/extensions/pomdtr.excalidraw-editor-3.7.4/public//dist/excalidraw-assets/Virgil.woff2");
      }
      @font-face {
        font-family: "Cascadia";
        src: url("https://file%2B.vscode-resource.vscode-cdn.net/Users/master/.vscode/extensions/pomdtr.excalidraw-editor-3.7.4/public//dist/excalidraw-assets/Cascadia.woff2");
      }
      @font-face {
        font-family: "Assistant";
        src: url("https://file%2B.vscode-resource.vscode-cdn.net/Users/master/.vscode/extensions/pomdtr.excalidraw-editor-3.7.4/public//dist/excalidraw-assets/Assistant-Regular.woff2");
      }
    </style>
    
  </defs>
  <rect x="0" y="0" width="441.52900941276755" height="196.10457597921913" fill="#ffffff"></rect><g stroke-linecap="round"><g transform="translate(10.656546065975022 11.486217809673747) rotate(0 16.21953582763672 58.00859069824219)"><path d="M0.53 0.56 C5.97 19.66, 28.38 96.27, 33.53 115.36 M-0.66 -0.2 C4.66 18.98, 27.41 97.19, 33.16 116.55" stroke="#000000" stroke-width="2" fill="none"></path></g></g><mask></mask><g stroke-linecap="round"><g transform="translate(10.379202315975022 11.810436559673747) rotate(0 36.05859375 29.513671875)"><path d="M1.09 -0.66 C12.87 8.94, 59.48 48.01, 71.15 58.14 M0.21 1.61 C12.3 11.29, 61.14 49.75, 73.35 59.21" stroke="#000000" stroke-width="2" fill="none"></path></g></g><mask></mask><g stroke-linecap="round"><g transform="translate(81.86357731597502 72.32996780967375) rotate(0 -18.826171875 27.30078125)"><path d="M-0.97 -0.89 C-7.6 8.5, -32.53 46.26, -38.68 55.68 M0.72 1.26 C-5.64 10.39, -29.93 45.36, -36.51 54.12" stroke="#000000" stroke-width="2" fill="none"></path></g></g><mask></mask><g stroke-linecap="round"><g transform="translate(84.05425561848517 76.73719049825343) rotate(3.216551686154933 108.123046875 -4.18647240309005)"><path d="M-1.03 1.08 C25.72 -0.63, 123.12 -11.64, 159.52 -11.15 C195.93 -10.66, 208.11 1.41, 217.41 4.01 M0.64 0.59 C27.29 -1.35, 122.37 -13.54, 158.47 -12.74 C194.58 -11.93, 207.82 2.94, 217.26 5.44" stroke="#000000" stroke-width="2" fill="none"></path></g></g><mask></mask><g stroke-linecap="round"><g transform="translate(256.52055973785 64.9131569933545) rotate(0 87.60461224717005 34.98967831779041)"><path d="M-0.19 1.02 C11.49 -7.64, 48.41 -64.51, 69.02 -50.92 C89.64 -37.34, 105.86 53.97, 123.51 82.53 C141.16 111.09, 166.2 113.99, 174.92 120.44 M-1.75 0.52 C9.96 -8.02, 47.41 -66.27, 68.69 -52.94 C89.96 -39.6, 108.2 51.51, 125.92 80.53 C143.64 109.56, 166.89 114.33, 175.01 121.19" stroke="#000000" stroke-width="2" fill="none"></path></g></g><mask></mask><g stroke-linecap="round"><g transform="translate(117.01982731597502 72.97840530967375) rotate(0 -7.83203125 16.794921875)"><path d="M1.16 0.21 C-1.57 5.75, -13.73 28.8, -16.59 34.26 M0.32 -0.73 C-2.03 4.98, -11.49 26.71, -14.36 32.48" stroke="#000000" stroke-width="2" fill="none"></path></g></g><mask></mask><g stroke-linecap="round"><g transform="translate(139.58232731597502 72.57606155967375) rotate(0 -5.765625 11.68359375)"><path d="M-0.42 0.3 C-2.46 4.13, -9.86 19.2, -11.67 23.06 M0.36 -0.01 C-1.8 3.87, -10.2 19.59, -12.17 23.6" stroke="#000000" stroke-width="2" fill="none"></path></g></g><mask></mask><g stroke-linecap="round"><g transform="translate(170.57842106597502 69.41981155967375) rotate(0 -4.8445281982421875 8.778518676757812)"><path d="M-0.13 -0.31 C-1.63 2.58, -7.79 14.57, -9.41 17.62 M0.8 0.72 C-0.71 3.68, -7.85 15.61, -9.7 18.35" stroke="#000000" stroke-width="2" fill="none"></path></g></g><mask></mask></svg>